<svg width="68" height="69" viewBox="0 0 68 69" fill="none" xmlns="http://www.w3.org/2000/svg">
<path d="M34 6.5C28.4621 6.5 23.0486 8.14217 18.444 11.2188C13.8395 14.2955 10.2506 18.6685 8.13139 23.7849C6.01213 28.9012 5.45764 34.5311 6.53802 39.9625C7.61841 45.394 10.2852 50.3831 14.201 54.299C18.1169 58.2148 23.106 60.8816 28.5375 61.962C33.9689 63.0424 39.5988 62.4879 44.7151 60.3686C49.8315 58.2494 54.2045 54.6605 57.2811 50.056C60.3578 45.4514 62 40.0379 62 34.5C62 30.823 61.2758 27.182 59.8686 23.7849C58.4615 20.3877 56.399 17.301 53.799 14.701C51.199 12.101 48.1123 10.0385 44.7151 8.63137C41.318 7.22424 37.677 6.5 34 6.5ZM42.4 37.3H36.8V42.9C36.8 43.6426 36.505 44.3548 35.9799 44.8799C35.4548 45.405 34.7426 45.7 34 45.7C33.2574 45.7 32.5452 45.405 32.0201 44.8799C31.495 44.3548 31.2 43.6426 31.2 42.9V37.3H25.6C24.8574 37.3 24.1452 37.005 23.6201 36.4799C23.095 35.9548 22.8 35.2426 22.8 34.5C22.8 33.7574 23.095 33.0452 23.6201 32.5201C24.1452 31.995 24.8574 31.7 25.6 31.7H31.2V26.1C31.2 25.3574 31.495 24.6452 32.0201 24.1201C32.5452 23.595 33.2574 23.3 34 23.3C34.7426 23.3 35.4548 23.595 35.9799 24.1201C36.505 24.6452 36.8 25.3574 36.8 26.1V31.7H42.4C43.1426 31.7 43.8548 31.995 44.3799 32.5201C44.905 33.0452 45.2 33.7574 45.2 34.5C45.2 35.2426 44.905 35.9548 44.3799 36.4799C43.8548 37.005 43.1426 37.3 42.4 37.3Z" fill="#FDAAA2"/>
</svg>
