<svg width="24" height="21" viewBox="0 0 24 21" fill="none" xmlns="http://www.w3.org/2000/svg">
<path fill-rule="evenodd" clip-rule="evenodd" d="M3.36702 11.7739C2.72206 11.8131 2.07393 11.8453 1.43191 11.8384C1.15679 11.8348 0.879038 11.7533 0.628039 11.6599C0.158558 11.4886 0.019605 11.1765 0.213353 10.7141C0.326155 10.4395 0.48673 10.1714 0.674876 9.93165C1.4033 9.00473 2.33719 8.27053 3.30164 7.57616C5.38309 6.07888 7.64313 4.88673 10.0553 3.79141C12.6103 2.68589 15.2851 1.69585 18.1042 1.21215C18.8889 1.07802 19.6882 1.03964 20.4809 1.00157L20.5581 0.997858C20.8786 0.983376 21.2093 1.05412 21.512 1.14371C22.0969 1.31498 22.2765 1.67522 21.9997 2.21513C21.7919 2.6218 21.5073 3.00494 21.2055 3.3637C20.9763 3.63661 20.7046 3.87909 20.4336 4.12101C20.3759 4.1725 20.3182 4.22397 20.261 4.2757C20.1726 4.35564 20.0422 4.41796 19.9241 4.44064C16.4364 5.08315 13.1375 6.30829 9.94236 7.85267C7.77261 8.90205 5.72687 10.1484 3.81348 11.6007C3.69224 11.6932 3.51687 11.7648 3.36702 11.7739ZM22.6662 2.86742L22.8735 3.33289C22.9658 3.54036 23.0573 3.7486 23.1488 3.95692C23.371 4.46312 23.5935 4.9698 23.83 5.46702C23.9914 5.80546 23.9587 6.1256 23.7821 6.45851C23.4214 7.13624 22.8713 7.67178 22.2927 8.18156C20.9571 9.35744 19.4819 10.354 17.9045 11.1931C17.5419 11.3866 17.1785 11.5783 16.8135 11.7665C17.8446 12.1579 18.7252 12.9454 19.2096 14.0332C20.1743 16.2001 19.1998 18.7388 17.0329 19.7036C14.8661 20.6683 12.3274 19.6938 11.3626 17.5269C10.887 16.4587 10.8847 15.3015 11.2614 14.2854C9.33444 15.0066 7.35723 15.5621 5.31444 15.8455C4.58548 15.9457 3.8402 15.942 3.10779 15.924C2.48618 15.9102 2.04835 15.6371 1.82596 15.0416C1.61595 14.4762 1.36264 13.9279 1.10463 13.3695C0.992818 13.1276 0.880124 12.8837 0.769693 12.6356C2.89709 12.9022 4.92707 12.4172 6.95065 11.8603C9.34424 11.1985 11.6469 10.2844 13.8836 9.2031C16.3543 8.00904 18.728 6.65944 20.8258 4.89635C21.5223 4.31057 22.154 3.67032 22.6662 2.86742ZM15.2574 17.3955C15.4107 17.7397 15.8153 17.8951 16.1595 17.7418C16.5037 17.5886 16.659 17.1839 16.5058 16.8397C16.3526 16.4955 15.9479 16.3402 15.6037 16.4934C15.2595 16.6467 15.1042 17.0513 15.2574 17.3955ZM15.4908 16.2446C16.6535 15.7269 17.6176 14.7677 18.1083 13.4893L17.1959 13.139C16.4074 15.1932 14.0961 16.2223 12.0419 15.4337L11.6917 16.3462C12.9701 16.8369 14.328 16.7623 15.4908 16.2446Z" fill="#FDAAA2"/>
</svg>
