<svg width="25" height="21" viewBox="0 0 25 21" fill="none" xmlns="http://www.w3.org/2000/svg">
<path fill-rule="evenodd" clip-rule="evenodd" d="M3.86705 11.7739C3.22209 11.8131 2.57395 11.8453 1.93194 11.8384C1.65681 11.8348 1.37906 11.7533 1.12807 11.6599C0.658585 11.4886 0.519631 11.1765 0.71338 10.7141C0.826181 10.4395 0.986757 10.1714 1.1749 9.93166C1.90332 9.00474 2.83722 8.27054 3.80167 7.57616C5.88311 6.07889 8.14315 4.88674 10.5553 3.79142C13.1103 2.6859 15.7852 1.69586 18.6042 1.21216C19.3889 1.07803 20.1882 1.03964 20.981 1.00158L21.0582 0.997867C21.3787 0.983386 21.7093 1.05413 22.0121 1.14372C22.5969 1.31499 22.7765 1.67522 22.4998 2.21514C22.2919 2.62181 22.0073 3.00494 21.7055 3.36371C21.4764 3.63661 21.2047 3.8791 20.9336 4.12101C20.8759 4.17251 20.8182 4.22398 20.761 4.27571C20.6726 4.35565 20.5423 4.41797 20.4241 4.44065C16.9364 5.08316 13.6376 6.3083 10.4424 7.85268C8.27263 8.90206 6.2269 10.1484 4.31351 11.6007C4.19226 11.6932 4.01689 11.7649 3.86705 11.7739ZM23.1662 2.86743L23.3735 3.3329C23.4659 3.54037 23.5573 3.74861 23.6488 3.95693C23.8711 4.46313 24.0936 4.96981 24.3301 5.46703C24.4914 5.80547 24.4587 6.12561 24.2822 6.45852C23.9215 7.13625 23.3714 7.67179 22.7927 8.18157C21.4571 9.35745 19.9819 10.354 18.4045 11.1931C18.0419 11.3866 17.6785 11.5783 17.3135 11.7665C18.3447 12.1579 19.2252 12.9454 19.7096 14.0333C20.6743 16.2001 19.6998 18.7388 17.533 19.7036C15.3661 20.6683 12.8274 19.6938 11.8626 17.5269C11.387 16.4587 11.3847 15.3015 11.7614 14.2854C9.83447 15.0066 7.85726 15.5621 5.81447 15.8455C5.0855 15.9457 4.34022 15.942 3.60781 15.924C2.98621 15.9102 2.54838 15.6371 2.32599 15.0416C2.11598 14.4762 1.86266 13.9279 1.60466 13.3696C1.49284 13.1276 1.38015 12.8837 1.26972 12.6356C3.39712 12.9022 5.42709 12.4173 7.45068 11.8603C9.84426 11.1985 12.1469 10.2844 14.3836 9.20311C16.8544 8.00905 19.2281 6.65945 21.3258 4.89636C22.0223 4.31058 22.654 3.67033 23.1662 2.86743ZM15.7574 17.3956C15.9107 17.7397 16.3153 17.8951 16.6595 17.7418C17.0037 17.5886 17.1591 17.1839 17.0058 16.8397C16.8526 16.4955 16.4479 16.3402 16.1037 16.4935C15.7595 16.6467 15.6042 17.0514 15.7574 17.3956ZM15.9908 16.2446C17.1536 15.7269 18.1176 14.7677 18.6084 13.4893L17.696 13.139C16.9074 15.1932 14.5961 16.2223 12.5419 15.4338L12.1917 16.3462C13.4701 16.8369 14.828 16.7623 15.9908 16.2446Z" fill="#DEDEDE"/>
</svg>
