<svg width="63" height="47" viewBox="0 0 63 47" fill="none" xmlns="http://www.w3.org/2000/svg">
<path d="M38.9429 5.65024C37.8432 7.63612 37.5307 9.93552 38.0117 12.3606L19.752 18.2935C18.7157 16.0487 17.1113 14.3715 15.0542 13.4105C12.8008 12.3578 10.1103 12.2539 7.48034 13.1085C2.14903 14.8406 -0.783655 20.575 0.943939 25.892C1.76278 28.4121 3.50139 30.4541 5.82132 31.6785C4.66433 34.0334 4.45905 36.7104 5.27938 39.2351C7.0107 44.5636 12.7567 47.4888 18.0883 45.7565C20.6717 44.9171 22.7759 43.1344 24.0118 40.737C25.0479 38.7273 25.3731 36.4791 24.9632 34.2881L43.1987 28.363C45.3559 32.8822 50.6057 35.2183 55.508 33.6254C60.84 31.8929 63.7659 26.1401 62.0312 20.8012C61.209 18.2707 59.468 16.222 57.1472 14.9957C58.3039 12.6394 58.5082 9.95862 57.686 7.42819C56.8472 4.84638 55.0531 2.75326 52.635 1.53553C50.2262 0.322422 47.4761 0.116981 44.893 0.956257C42.263 1.81082 40.1473 3.4755 38.9429 5.65024Z" fill="#DEDEDE" stroke="#DEDEDE" stroke-width="0.3"/>
</svg>
