<svg width="26" height="24" viewBox="0 0 26 24" fill="none" xmlns="http://www.w3.org/2000/svg">
<path fill-rule="evenodd" clip-rule="evenodd" d="M24.209 4.32447C24.9868 4.51599 25.4627 5.30532 25.2653 6.08305L21.7134 20.2329C21.5508 20.8772 20.9763 21.3299 20.3088 21.3299C20.1927 21.3299 20.0709 21.3125 19.9548 21.2835L10.4712 18.9039C10.094 18.811 9.77474 18.573 9.57741 18.2422C9.38008 17.9114 9.32204 17.5225 9.4149 17.1453L12.9669 2.99537C13.1294 2.35114 13.704 1.89844 14.3714 1.89844C14.4875 1.89844 14.6094 1.91585 14.7255 1.94487L24.209 4.32447ZM7.52508 16.9363C7.21747 18.1783 7.97198 19.4378 9.21401 19.7512L11.6168 20.349L7.06077 22.0147C6.89826 22.0727 6.72994 22.1018 6.56163 22.1018C5.95222 22.1018 5.40665 21.7187 5.19771 21.1499L0.780949 9.07783C0.64746 8.71218 0.659068 8.31752 0.827381 7.96928C0.995694 7.62105 1.28589 7.35407 1.64573 7.22058L9.60287 4.30702C9.76538 4.24899 9.93369 4.21997 10.102 4.21997C10.3051 4.21997 10.5025 4.2664 10.6824 4.34765L7.52508 16.9363Z" fill="#DEDEDE"/>
</svg>
