<svg width="24" height="20" viewBox="0 0 24 20" fill="none" xmlns="http://www.w3.org/2000/svg">
<path d="M12 19.7734C11.8487 19.7743 11.6987 19.7453 11.5586 19.6881C11.4185 19.6308 11.2911 19.5465 11.1836 19.44L2.2493 10.4942C1.12862 9.36177 0.5 7.83292 0.5 6.23973C0.5 4.64654 1.12862 3.1177 2.2493 1.9853C3.37875 0.859038 4.9087 0.226578 6.50374 0.226578C8.09877 0.226578 9.62872 0.859038 10.7582 1.9853L12 3.22713L13.2418 1.9853C14.3713 0.859038 15.9012 0.226578 17.4963 0.226578C19.0913 0.226578 20.6212 0.859038 21.7507 1.9853C22.8714 3.1177 23.5 4.64654 23.5 6.23973C23.5 7.83292 22.8714 9.36177 21.7507 10.4942L12.8164 19.44C12.709 19.5465 12.5815 19.6308 12.4414 19.6881C12.3013 19.7453 12.1513 19.7743 12 19.7734ZM6.50374 2.52573C6.01698 2.52352 5.53462 2.61792 5.0846 2.80346C4.63459 2.98899 4.22586 3.26197 3.88209 3.60658C3.18765 4.30468 2.79782 5.24931 2.79782 6.23398C2.79782 7.21866 3.18765 8.16328 3.88209 8.86138L12 16.9908L20.1179 8.86138C20.8124 8.16328 21.2022 7.21866 21.2022 6.23398C21.2022 5.24931 20.8124 4.30468 20.1179 3.60658C19.4092 2.93704 18.4712 2.56401 17.4963 2.56401C16.5213 2.56401 15.5833 2.93704 14.8746 3.60658L12.8164 5.67631C12.7095 5.78408 12.5823 5.86962 12.4422 5.928C12.3021 5.98637 12.1518 6.01643 12 6.01643C11.8482 6.01643 11.6979 5.98637 11.5578 5.928C11.4177 5.86962 11.2905 5.78408 11.1836 5.67631L9.12538 3.60658C8.78161 3.26197 8.37288 2.98899 7.92287 2.80346C7.47285 2.61792 6.99049 2.52352 6.50374 2.52573Z" fill="#DEDEDE"/>
</svg>
