<svg width="24" height="23" viewBox="0 0 24 23" fill="none" xmlns="http://www.w3.org/2000/svg">
<path fill-rule="evenodd" clip-rule="evenodd" d="M16.8 5.76704L20.4 5.76704C22.392 5.76704 24 7.37504 24 9.36704L24 18.967C24 20.959 22.392 22.567 20.4 22.567L3.6 22.567C1.608 22.567 0 20.959 0 18.967L0 9.36704C0 7.37504 1.608 5.76704 3.6 5.76704H7.2V3.96704C7.2 2.31104 8.544 0.967041 10.2 0.967041L13.8 0.967041C15.456 0.967041 16.8 2.31104 16.8 3.96704V5.76704ZM10.2 3.36704C9.864 3.36704 9.6 3.63104 9.6 3.96704V5.76704L14.4 5.76704V3.96704C14.4 3.63104 14.136 3.36704 13.8 3.36704L10.2 3.36704ZM20.4 20.167C21.06 20.167 21.6 19.627 21.6 18.967L21.6 9.36704C21.6 8.70704 21.06 8.16704 20.4 8.16704L3.6 8.16704C2.94 8.16704 2.4 8.70704 2.4 9.36704L2.4 18.967C2.4 19.627 2.94 20.167 3.6 20.167L20.4 20.167ZM13.1399 12.6911H15.2879C15.6479 12.6911 15.9359 12.9791 15.9359 13.3391V14.3231C15.9359 14.6831 15.6479 14.9711 15.2879 14.9711H13.1399V17.1191C13.1399 17.4791 12.8519 17.7671 12.4919 17.7671H11.5079C11.1479 17.7671 10.8599 17.4791 10.8599 17.1191V14.9711H8.71191C8.35191 14.9711 8.06391 14.6831 8.06391 14.3231V13.3391C8.06391 12.9791 8.35191 12.6911 8.71191 12.6911H10.8599V10.5431C10.8599 10.1831 11.1479 9.89506 11.5079 9.89506H12.4919C12.8519 9.89506 13.1399 10.1831 13.1399 10.5431V12.6911Z" fill="#DEDEDE"/>
</svg>
