<svg width="25" height="22" viewBox="0 0 25 22" fill="none" xmlns="http://www.w3.org/2000/svg">
<path fill-rule="evenodd" clip-rule="evenodd" d="M17.3 5.0002L20.9 5.0002C22.892 5.0002 24.5 6.60819 24.5 8.60019L24.5 18.2002C24.5 20.1922 22.892 21.8002 20.9 21.8002L4.1 21.8002C2.108 21.8002 0.5 20.1922 0.5 18.2002L0.5 8.60019C0.5 6.60819 2.108 5.0002 4.1 5.0002H7.7V3.2002C7.7 1.5442 9.044 0.200195 10.7 0.200195L14.3 0.200195C15.956 0.200195 17.3 1.5442 17.3 3.2002V5.0002ZM10.7 2.6002C10.364 2.6002 10.1 2.8642 10.1 3.2002V5.0002L14.9 5.0002V3.2002C14.9 2.8642 14.636 2.6002 14.3 2.6002L10.7 2.6002ZM20.9 19.4002C21.56 19.4002 22.1 18.8602 22.1 18.2002L22.1 8.60019C22.1 7.94019 21.56 7.4002 20.9 7.4002L4.1 7.4002C3.44 7.4002 2.9 7.94019 2.9 8.60019L2.9 18.2002C2.9 18.8602 3.44 19.4002 4.1 19.4002L20.9 19.4002ZM13.6399 11.9242H15.7879C16.1479 11.9242 16.4359 12.2122 16.4359 12.5722V13.5562C16.4359 13.9162 16.1479 14.2042 15.7879 14.2042H13.6399V16.3522C13.6399 16.7122 13.3519 17.0002 12.9919 17.0002H12.0079C11.6479 17.0002 11.3599 16.7122 11.3599 16.3522V14.2042H9.21191C8.85191 14.2042 8.56391 13.9162 8.56391 13.5562V12.5722C8.56391 12.2122 8.85191 11.9242 9.21191 11.9242H11.3599V9.77621C11.3599 9.41621 11.6479 9.12821 12.0079 9.12821H12.9919C13.3519 9.12821 13.6399 9.41621 13.6399 9.77621V11.9242Z" fill="#FDAAA2"/>
</svg>
