<svg width="68" height="34" viewBox="0 0 68 34" fill="none" xmlns="http://www.w3.org/2000/svg">
<path d="M62.4263 20.5541C64.0764 12.7907 67.0848 8.56206 67.0848 8.56206C64.4867 8.00982 58.0984 14.6028 56.0808 16.7714L49.7188 15.4191C50.2616 14.4829 50.997 13.6595 51.8829 13.0252C52.0566 12.9007 52.2381 12.7818 52.4223 12.6718L50.7957 9.94545C50.5353 10.1009 50.2786 10.2688 50.0337 10.4444C48.5024 11.5412 47.2881 13.0357 46.5032 14.7355L41.1062 13.5883C41.8917 11.8861 43.1072 10.3895 44.6399 9.2918C44.885 9.1162 45.1417 8.94828 45.4026 8.79262L43.7768 6.06573C43.4397 6.26686 43.1078 6.48403 42.7909 6.71106C40.6164 8.2686 38.9349 10.4462 37.9423 12.9156L32.5414 11.7676C33.5361 9.29068 35.2217 7.10635 37.4029 5.54422C37.7191 5.31737 38.0516 5.09968 38.391 4.89723L36.7644 2.17083C36.3487 2.41887 35.9409 2.68596 35.5534 2.96386C32.7316 4.9846 30.5821 7.85366 29.3962 11.0991L24.4251 10.0424C25.1077 6.83123 25.7439 3.83816 26.2403 1.50279C9.16097 -2.12753 0.640108 7.421 0.640108 7.421C0.640108 7.421 4.54057 19.6098 21.6199 23.2401C22.1838 20.5869 22.8104 17.6392 23.4351 14.7004L28.4008 15.7559C28.1283 19.6846 29.2249 23.6737 31.5061 26.9102L34.1012 25.0815C32.3253 22.5619 31.4329 19.4844 31.547 16.4247L36.9484 17.5728C36.836 20.6248 37.7265 23.6928 39.4964 26.2043L42.0913 24.3752C40.8275 22.5821 40.1435 20.4228 40.1129 18.2454L45.5105 19.3927C45.5415 21.5679 46.2246 23.7246 47.4865 25.5151L50.0816 23.6864C49.3285 22.6179 48.8674 21.3652 48.7275 20.0765L55.091 21.4291C56.052 24.2309 59.2063 32.8521 61.8045 33.4044C61.8045 33.4044 60.7761 28.3174 62.4263 20.5541ZM11.5087 9.73152C10.6512 9.54924 10.1038 8.70636 10.2861 7.84883C10.4683 6.99129 11.3112 6.44392 12.1688 6.62619C13.0261 6.80843 13.5737 7.65135 13.3914 8.50888C13.2091 9.36642 12.3661 9.91376 11.5087 9.73152Z" fill="#DEDEDE"/>
</svg>
