<svg width="25" height="25" viewBox="0 0 25 25" fill="none" xmlns="http://www.w3.org/2000/svg">
<path d="M12.5 22.5405C12.3487 22.5414 12.1987 22.5124 12.0586 22.4551C11.9185 22.3979 11.7911 22.3136 11.6836 22.207L2.7493 13.2612C1.62862 12.1288 1 10.6 1 9.0068C1 7.41362 1.62862 5.88477 2.7493 4.75238C3.87875 3.62611 5.4087 2.99365 7.00374 2.99365C8.59877 2.99365 10.1287 3.62611 11.2582 4.75238L12.5 5.99421L13.7418 4.75238C14.8713 3.62611 16.4012 2.99365 17.9963 2.99365C19.5913 2.99365 21.1212 3.62611 22.2507 4.75238C23.3714 5.88477 24 7.41362 24 9.0068C24 10.6 23.3714 12.1288 22.2507 13.2612L13.3164 22.207C13.209 22.3136 13.0815 22.3979 12.9414 22.4551C12.8013 22.5124 12.6513 22.5414 12.5 22.5405ZM7.00374 5.2928C6.51698 5.2906 6.03462 5.385 5.5846 5.57053C5.13459 5.75606 4.72586 6.02904 4.38209 6.37366C3.68765 7.07175 3.29782 8.01638 3.29782 9.00106C3.29782 9.98573 3.68765 10.9304 4.38209 11.6285L12.5 19.7579L20.6179 11.6285C21.3124 10.9304 21.7022 9.98573 21.7022 9.00106C21.7022 8.01638 21.3124 7.07175 20.6179 6.37366C19.9092 5.70411 18.9712 5.33109 17.9963 5.33109C17.0213 5.33109 16.0833 5.70411 15.3746 6.37366L13.3164 8.44338C13.2095 8.55115 13.0823 8.6367 12.9422 8.69507C12.8021 8.75345 12.6518 8.7835 12.5 8.7835C12.3482 8.7835 12.1979 8.75345 12.0578 8.69507C11.9177 8.6367 11.7905 8.55115 11.6836 8.44338L9.62538 6.37366C9.28161 6.02904 8.87288 5.75606 8.42287 5.57053C7.97285 5.385 7.49049 5.2906 7.00374 5.2928Z" fill="#FDAAA2"/>
</svg>
