<svg width="24" height="24" viewBox="0 0 24 24" fill="none" xmlns="http://www.w3.org/2000/svg">
<path d="M16.0545 9.18136L17.8585 7.37729L17.9121 8.69121C17.9203 8.91363 18.1057 9.08251 18.3281 9.07427L19.4649 9.02484C19.6873 9.0166 19.8562 8.83125 19.848 8.60883L19.6791 4.53525C19.6708 4.31283 19.4855 4.14396 19.2631 4.1522L15.1895 4.32107C14.9671 4.32931 14.7982 4.51466 14.8064 4.73708L14.8559 5.87389C14.8641 6.09631 15.0494 6.26519 15.2719 6.25695L16.5611 6.2034L14.8188 7.94569C11.7337 5.47024 7.21532 5.66383 4.35269 8.52646C1.28 11.5991 1.28 16.5748 4.35269 19.6475C7.42538 22.7201 12.4051 22.716 15.4737 19.6475C18.3363 16.7848 18.5299 12.2664 16.0545 9.18136ZM6.00025 17.9999C3.84195 15.8416 3.84195 12.3323 6.00025 10.174C8.15855 8.01571 11.6678 8.01571 13.8261 10.174C15.9844 12.3323 15.9844 15.8416 13.8261 17.9999C11.6678 20.1582 8.15855 20.1582 6.00025 17.9999Z" fill="#70D4F4"/>
</svg>
