<svg width="16" height="21" viewBox="0 0 16 21" fill="none" xmlns="http://www.w3.org/2000/svg">
<path fill-rule="evenodd" clip-rule="evenodd" d="M2.37124 2.81479C3.86926 1.33176 5.89206 0.499895 8 0.5C10.1079 0.499895 12.1307 1.33176 13.6288 2.81479C15.1268 4.29782 15.9789 6.31216 16 8.42C16 13.9 9 20 8.65 20.26C8.46887 20.4149 8.23835 20.5001 8 20.5001C7.76165 20.5001 7.53113 20.4149 7.35 20.26L7.34836 20.2586C7.02535 19.9787 0 13.8904 0 8.42C0.0210794 6.31216 0.873231 4.29782 2.37124 2.81479ZM2 8.42C2 12.15 6.33 16.56 8 18.15C9.67 16.56 14 12.12 14 8.42C14 6.8287 13.3679 5.30258 12.2426 4.17736C11.1174 3.05214 9.5913 2.42 8 2.42C6.4087 2.42 4.88258 3.05214 3.75736 4.17736C2.63214 5.30258 2 6.8287 2 8.42ZM6.05551 5.08986C6.63108 4.70527 7.30777 4.5 8 4.5C8.92826 4.5 9.8185 4.86875 10.4749 5.52513C11.1313 6.1815 11.5 7.07174 11.5 8C11.5 8.69223 11.2947 9.36892 10.9101 9.9445C10.5256 10.5201 9.97894 10.9687 9.33939 11.2336C8.69985 11.4985 7.99612 11.5678 7.31719 11.4327C6.63825 11.2977 6.01461 10.9644 5.52513 10.4749C5.03564 9.98539 4.7023 9.36175 4.56725 8.68282C4.4322 8.00388 4.50152 7.30015 4.76642 6.66061C5.03133 6.02107 5.47993 5.47444 6.05551 5.08986ZM7.16665 9.2472C7.41332 9.41203 7.70333 9.5 8 9.5C8.39783 9.5 8.77936 9.34196 9.06066 9.06066C9.34197 8.77936 9.5 8.39782 9.5 8C9.5 7.70333 9.41203 7.41332 9.24721 7.16665C9.08238 6.91997 8.84812 6.72771 8.57403 6.61418C8.29994 6.50065 7.99834 6.47094 7.70737 6.52882C7.41639 6.5867 7.14912 6.72956 6.93934 6.93934C6.72956 7.14912 6.5867 7.41639 6.52882 7.70736C6.47095 7.99834 6.50065 8.29994 6.61418 8.57403C6.72771 8.84811 6.91997 9.08238 7.16665 9.2472Z" fill="#FDAAA2"/>
</svg>
