<svg width="24" height="24" viewBox="0 0 24 24" fill="none" xmlns="http://www.w3.org/2000/svg">
<path fill-rule="evenodd" clip-rule="evenodd" d="M20.7281 4.0484C19.5759 2.90435 18.2068 2.00195 16.7012 1.39417C15.1955 0.786386 13.5837 0.485461 11.9601 0.509054C8.91244 0.501435 5.98654 1.70482 3.8261 3.85449C1.66566 6.00415 0.447658 8.92401 0.440038 11.9717C0.432419 15.0194 1.63581 17.9453 3.78547 20.1058C5.93514 22.2662 8.85499 23.4842 11.9027 23.4918C12.5594 23.503 13.2013 23.2958 13.7275 22.9027C14.2537 22.5096 14.6344 21.9529 14.81 21.32C14.9219 20.8629 14.9208 20.3854 14.8066 19.9289C14.6925 19.4724 14.4688 19.0506 14.155 18.6999C14.0824 18.6173 14.0351 18.5157 14.0186 18.407C14.0021 18.2983 14.0171 18.1871 14.0618 18.0867C14.1066 17.9863 14.1792 17.9009 14.2711 17.8405C14.363 17.7801 14.4703 17.7474 14.5802 17.7461H16.4763C18.2608 17.7545 19.9825 17.0874 21.2955 15.8788C22.6085 14.6702 23.4157 13.0096 23.5549 11.2305C23.5977 9.90397 23.369 8.58266 22.8829 7.34765C22.3968 6.11263 21.6635 4.98993 20.7281 4.0484ZM16.5222 15.4479H14.6261C14.0724 15.4447 13.5297 15.6023 13.0637 15.9016C12.5978 16.2008 12.2287 16.6288 12.0012 17.1337C11.7737 17.6385 11.6976 18.1985 11.7821 18.7458C11.8666 19.2931 12.1081 19.8041 12.4773 20.2168C12.5491 20.2893 12.5999 20.38 12.6242 20.4792C12.6485 20.5784 12.6454 20.6823 12.6152 20.7799C12.5577 21.0212 12.2934 21.1706 11.9372 21.1936C10.6321 21.1768 9.34558 20.8824 8.16315 20.3299C6.98071 19.7773 5.92948 18.9794 5.07938 17.989C4.22928 16.9987 3.5998 15.8387 3.2328 14.5862C2.8658 13.3337 2.76971 12.0174 2.95091 10.7249C3.2786 8.55296 4.36383 6.56689 6.01466 5.11794C7.66549 3.669 9.77555 2.85054 11.9716 2.80733H12.0636C13.3631 2.79032 14.6528 3.03372 15.8567 3.52318C17.0606 4.01264 18.1543 4.73825 19.0733 5.6572C19.7904 6.37471 20.3538 7.23077 20.7292 8.17317C21.1045 9.11557 21.284 10.1245 21.2567 11.1386C21.1377 12.3142 20.5885 13.4045 19.7146 14.1998C18.8408 14.9952 17.7038 15.4397 16.5222 15.4479ZM12.0632 7.4039C13.0152 7.4039 13.7869 6.63217 13.7869 5.68019C13.7869 4.72822 13.0152 3.95649 12.0632 3.95649C11.1113 3.95649 10.3395 4.72822 10.3395 5.68019C10.3395 6.63217 11.1113 7.4039 12.0632 7.4039ZM15.1146 7.21485C15.2653 6.90915 15.5032 6.655 15.7984 6.48451C15.9945 6.3712 16.2111 6.29767 16.4357 6.26811C16.6602 6.23855 16.8885 6.25355 17.1072 6.31225C17.326 6.37095 17.5311 6.4722 17.7107 6.6102C17.8903 6.74821 18.041 6.92026 18.1541 7.11654C18.3243 7.41186 18.403 7.751 18.3805 8.09108C18.358 8.43117 18.2351 8.75695 18.0275 9.02722C17.8198 9.2975 17.5367 9.50016 17.2139 9.60956C16.8911 9.71897 16.5431 9.73023 16.2139 9.64191C15.8847 9.55359 15.5891 9.36966 15.3644 9.11336C15.1397 8.85707 14.9961 8.53992 14.9516 8.202C14.9071 7.86408 14.9638 7.52055 15.1146 7.21485ZM8.32892 6.48457C8.0336 6.31441 7.69446 6.23563 7.35437 6.25817C7.01428 6.28071 6.68851 6.40357 6.41823 6.61122C6.14795 6.81887 5.9453 7.10199 5.83589 7.42478C5.72648 7.74758 5.71522 8.09557 5.80354 8.42476C5.89186 8.75396 6.0758 9.04958 6.33209 9.27426C6.58838 9.49894 6.90554 9.6426 7.24346 9.68707C7.58138 9.73155 7.9249 9.67484 8.2306 9.52412C8.5363 9.3734 8.79046 9.13544 8.96094 8.84031C9.07425 8.64416 9.14779 8.4276 9.17734 8.20302C9.2069 7.97843 9.1919 7.75023 9.1332 7.53144C9.0745 7.31266 8.97326 7.10759 8.83525 6.92796C8.69725 6.74833 8.52519 6.59766 8.32892 6.48457ZM4.72185 11.9273C4.85075 11.6115 5.07047 11.341 5.3532 11.1501C5.53993 11.0222 5.75018 10.9325 5.97178 10.8864C6.19337 10.8402 6.42192 10.8385 6.6442 10.8812C6.86648 10.924 7.07807 11.0104 7.26675 11.1354C7.45542 11.2605 7.61743 11.4217 7.7434 11.6097C7.93516 11.8919 8.03888 12.2246 8.04143 12.5657C8.04399 12.9068 7.94527 13.2411 7.75777 13.5261C7.57026 13.811 7.30241 14.034 6.98813 14.1667C6.67384 14.2993 6.32726 14.3358 5.99226 14.2713C5.65726 14.2069 5.34891 14.0445 5.10625 13.8048C4.86359 13.565 4.69753 13.2586 4.6291 12.9244C4.56068 12.5902 4.59295 12.2432 4.72185 11.9273Z" fill="#DEDEDE"/>
</svg>
