<svg width="25" height="24" viewBox="0 0 25 24" fill="none" xmlns="http://www.w3.org/2000/svg">
<path fill-rule="evenodd" clip-rule="evenodd" d="M21.228 3.81554C20.0758 2.67148 18.7068 1.76909 17.2011 1.1613C15.6955 0.553522 14.0836 0.252597 12.4601 0.27619C9.41238 0.26857 6.48648 1.47196 4.32604 3.62162C2.1656 5.77129 0.947597 8.69114 0.939977 11.7388C0.932358 14.7866 2.13575 17.7125 4.28541 19.8729C6.43507 22.0333 9.35493 23.2513 12.4026 23.259C13.0594 23.2701 13.7012 23.0629 14.2274 22.6698C14.7536 22.2767 15.1344 21.72 15.3099 21.0871C15.4219 20.63 15.4207 20.1526 15.3066 19.696C15.1924 19.2395 14.9688 18.8177 14.6549 18.4671C14.5824 18.3845 14.535 18.2828 14.5185 18.1741C14.502 18.0654 14.517 17.9543 14.5618 17.8539C14.6065 17.7535 14.6792 17.668 14.771 17.6076C14.8629 17.5472 14.9702 17.5145 15.0801 17.5133H16.9762C18.7607 17.5216 20.4824 16.8545 21.7954 15.6459C23.1084 14.4374 23.9156 12.7768 24.0549 10.9977C24.0976 9.6711 23.8689 8.3498 23.3828 7.11478C22.8967 5.87976 22.1635 4.75706 21.228 3.81554ZM17.0222 15.215H15.1261C14.5723 15.2119 14.0296 15.3695 13.5637 15.6687C13.0977 15.9679 12.7286 16.3959 12.5011 16.9008C12.2737 17.4057 12.1975 17.9657 12.282 18.5129C12.3665 19.0602 12.608 19.5712 12.9772 19.9839C13.0491 20.0564 13.0999 20.1472 13.1242 20.2463C13.1485 20.3455 13.1453 20.4495 13.1151 20.547C13.0576 20.7883 12.7933 20.9377 12.4371 20.9607C11.1321 20.944 9.84552 20.6495 8.66309 20.097C7.48065 19.5445 6.42942 18.7465 5.57932 17.7562C4.72922 16.7658 4.09974 15.6058 3.73274 14.3533C3.36574 13.1008 3.26965 11.7846 3.45084 10.492C3.77854 8.3201 4.86377 6.33403 6.5146 4.88508C8.16543 3.43613 10.2755 2.61768 12.4716 2.57447H12.5635C13.863 2.55745 15.1527 2.80085 16.3567 3.29032C17.5606 3.77978 18.6543 4.50538 19.5732 5.42433C20.2903 6.14185 20.8537 6.99791 21.2291 7.94031C21.6045 8.8827 21.784 9.89169 21.7566 10.9057C21.6376 12.0814 21.0885 13.1716 20.2146 13.967C19.3407 14.7624 18.2038 15.2068 17.0222 15.215ZM12.5632 7.17104C13.5151 7.17104 14.2869 6.39931 14.2869 5.44733C14.2869 4.49535 13.5151 3.72362 12.5632 3.72362C11.6112 3.72362 10.8395 4.49535 10.8395 5.44733C10.8395 6.39931 11.6112 7.17104 12.5632 7.17104ZM15.6145 6.98199C15.7652 6.67629 16.0032 6.42213 16.2983 6.25165C16.4945 6.13834 16.711 6.0648 16.9356 6.03525C17.1602 6.00569 17.3884 6.02069 17.6072 6.07939C17.826 6.13808 18.031 6.23933 18.2107 6.37734C18.3903 6.51534 18.541 6.6874 18.654 6.88367C18.8242 7.17899 18.903 7.51813 18.8804 7.85822C18.8579 8.19831 18.735 8.52408 18.5274 8.79436C18.3197 9.06464 18.0366 9.26729 17.7138 9.3767C17.391 9.48611 17.043 9.49737 16.7139 9.40905C16.3847 9.32073 16.089 9.13679 15.8644 8.8805C15.6397 8.62421 15.496 8.30705 15.4515 7.96913C15.4071 7.63121 15.4638 7.28769 15.6145 6.98199ZM8.82886 6.25171C8.53354 6.08155 8.1944 6.00276 7.85431 6.02531C7.51422 6.04785 7.18845 6.17071 6.91817 6.37836C6.64789 6.58601 6.44524 6.86912 6.33583 7.19192C6.22642 7.51472 6.21516 7.86271 6.30348 8.1919C6.3918 8.52109 6.57573 8.81671 6.83203 9.0414C7.08832 9.26608 7.40547 9.40973 7.7434 9.45421C8.08132 9.49868 8.42484 9.44198 8.73054 9.29126C9.03624 9.14054 9.2904 8.90257 9.46088 8.60744C9.57419 8.4113 9.64772 8.19474 9.67728 7.97015C9.70684 7.74557 9.69184 7.51736 9.63314 7.29858C9.57444 7.07979 9.4732 6.87472 9.33519 6.69509C9.19719 6.51547 9.02513 6.3648 8.82886 6.25171ZM5.22179 11.6945C5.35069 11.3786 5.57041 11.1081 5.85314 10.9172C6.03987 10.7893 6.25012 10.6997 6.47172 10.6535C6.69331 10.6074 6.92186 10.6056 7.14414 10.6484C7.36642 10.6911 7.57801 10.7775 7.76669 10.9026C7.95536 11.0276 8.11737 11.1888 8.24334 11.3769C8.4351 11.659 8.53882 11.9917 8.54137 12.3329C8.54393 12.674 8.44521 13.0082 8.2577 13.2932C8.0702 13.5782 7.80235 13.8011 7.48807 13.9338C7.17378 14.0665 6.8272 14.1029 6.4922 14.0385C6.1572 13.974 5.84885 13.8117 5.60619 13.5719C5.36353 13.3321 5.19747 13.0257 5.12904 12.6915C5.06061 12.3573 5.09289 12.0103 5.22179 11.6945Z" fill="#FDAAA2"/>
</svg>
