<svg width="40" height="40" viewBox="0 0 40 40" fill="none" xmlns="http://www.w3.org/2000/svg">
<rect width="40" height="40" rx="20" fill="#262626"/>
<path fill-rule="evenodd" clip-rule="evenodd" d="M27.5793 22.7935C27.68 22.8845 27.756 22.9996 27.8 23.128C27.8675 23.3179 27.9184 23.5133 27.952 23.712C27.9842 23.9131 28.0002 24.1164 28 24.32C28 24.8033 27.9048 25.2818 27.7199 25.7283C27.5349 26.1747 27.2639 26.5804 26.9221 26.9221C26.5804 27.2639 26.1747 27.5349 25.7283 27.7199C25.2818 27.9048 24.8033 28 24.32 28C21.0538 27.9958 17.9226 26.6964 15.6131 24.3869C13.3036 22.0773 12.0042 18.9462 12 15.68C12 14.704 12.3877 13.768 13.0778 13.0778C13.768 12.3877 14.704 12 15.68 12C15.8875 12.0063 16.0938 12.0331 16.296 12.08C16.4922 12.109 16.6852 12.1573 16.872 12.224C17.0004 12.268 17.1155 12.344 17.2065 12.4447C17.2975 12.5455 17.3613 12.6678 17.392 12.8L18.488 17.544C18.5175 17.6743 18.514 17.8099 18.4776 17.9385C18.4413 18.067 18.3734 18.1844 18.28 18.28C18.1818 18.3932 18.1692 18.3996 17.3141 18.8303C17.2631 18.856 17.2091 18.8832 17.152 18.912C17.94 20.6407 19.3226 22.0289 21.048 22.824C21.568 21.832 21.576 21.824 21.688 21.72C21.7836 21.6266 21.901 21.5587 22.0295 21.5223C22.1581 21.486 22.2937 21.4825 22.424 21.512L27.224 22.608C27.3562 22.6387 27.4785 22.7025 27.5793 22.7935ZM16.7422 23.2578C18.7521 25.2678 21.4775 26.3979 24.32 26.4C24.871 26.3979 25.3988 26.1781 25.7885 25.7885C26.1781 25.3988 26.3979 24.871 26.4 24.32V24.056L22.696 23.208L22.464 23.648C22.104 24.344 21.84 24.848 21.168 24.576C19.8423 24.1015 18.639 23.3376 17.6454 22.3399C16.6518 21.3422 15.893 20.1357 15.424 18.808C15.136 18.184 15.68 17.896 16.368 17.536L16.8 17.312L15.944 13.6H15.68C15.129 13.6021 14.6012 13.8219 14.2115 14.2115C13.8219 14.6012 13.6021 15.129 13.6 15.68C13.6021 18.5225 14.7322 21.2479 16.7422 23.2578ZM20.8 13.6C22.2852 13.6 23.7096 14.19 24.7598 15.2402C25.81 16.2904 26.4 17.7148 26.4 19.2C26.4 19.4122 26.4843 19.6157 26.6343 19.7657C26.7843 19.9157 26.9878 20 27.2 20C27.4122 20 27.6157 19.9157 27.7657 19.7657C27.9157 19.6157 28 19.4122 28 19.2C28 17.2904 27.2414 15.4591 25.8912 14.1088C24.5409 12.7586 22.7096 12 20.8 12C20.5878 12 20.3843 12.0843 20.2343 12.2343C20.0843 12.3843 20 12.5878 20 12.8C20 13.0122 20.0843 13.2157 20.2343 13.3657C20.3843 13.5157 20.5878 13.6 20.8 13.6ZM20.8 16.8002C21.4365 16.8002 22.047 17.0531 22.4971 17.5031C22.9471 17.9532 23.2 18.5637 23.2 19.2002C23.2 19.4124 23.2843 19.6159 23.4343 19.7659C23.5843 19.9159 23.7878 20.0002 24 20.0002C24.2122 20.0002 24.4157 19.9159 24.5657 19.7659C24.7157 19.6159 24.8 19.4124 24.8 19.2002C24.8 18.1393 24.3786 17.1219 23.6284 16.3718C22.8783 15.6216 21.8609 15.2002 20.8 15.2002C20.5878 15.2002 20.3843 15.2845 20.2343 15.4345C20.0843 15.5845 20 15.788 20 16.0002C20 16.2124 20.0843 16.4159 20.2343 16.5659C20.3843 16.7159 20.5878 16.8002 20.8 16.8002Z" fill="white"/>
</svg>
