<svg width="288" height="287" viewBox="0 0 288 287" fill="none" xmlns="http://www.w3.org/2000/svg">
<path d="M145.221 8.86402C145.221 2.7762 148.259 -0.158646 154.373 0.0198245L175.317 2.9745C181.611 3.7677 185.144 6.12747 185.939 10.0538C185.939 12.4136 183.576 14.7734 178.851 17.1331C178.057 18.3031 177.68 21.2578 177.68 25.9773V46.898C177.68 51.8159 180.042 54.255 184.767 54.255H200.391C205.315 54.255 207.756 51.8952 207.756 47.1756V8.86402C207.756 2.5779 210.794 -0.376776 216.908 0.0198245L236.959 2.9745C241.287 3.5694 244.821 4.93767 247.58 7.09915C249.347 11.6204 247.283 14.9518 241.387 17.1133C240.592 18.1048 240.215 20.8414 240.215 25.3626V46.8782C240.215 51.5977 240.612 54.1558 241.387 54.5326C245.516 53.7592 249.645 49.1388 253.774 40.6912C257.705 30.6771 262.926 28.5156 269.418 34.2068C275.91 40.2946 280.436 45.3116 282.977 49.238C286.511 54.9292 288.179 58.4788 288 59.847C287.206 61.4136 283.672 62.2068 277.379 62.2068H247.58C242.657 62.2068 240.215 64.5666 240.215 69.2861C240.414 79.4986 240.215 89.7111 239.62 99.9235C236.463 105.615 230.19 108.173 220.74 107.578C210.119 106.606 205.791 100.618 207.756 89.6119V69.5836C207.756 64.6657 205.394 62.2266 200.669 62.2266H185.025C180.102 62.2266 177.66 64.5864 177.66 69.306C177.859 79.5184 177.66 89.7309 177.064 99.9434C173.908 105.635 167.714 108.193 158.483 107.598C148.06 107.003 143.633 101.014 145.201 89.6317V69.6034C145.201 64.6856 142.839 62.2465 138.114 62.2465H132.515C127.791 62.2465 125.825 63.0397 126.619 64.6062C128.982 69.1275 127.116 71.289 121.021 71.0907C118.063 71.289 115.899 71.8839 114.529 72.8555C103.908 84.2578 93.684 93.3796 83.8571 100.261C77.7623 104.782 77.5638 109.204 83.2615 113.527C98.4089 127.071 108.037 142.697 112.167 160.365C115.7 172.343 116.197 191.796 113.636 218.705C112.266 237.564 108.216 253.269 101.546 265.841C93.0885 279.98 78.7351 287.06 58.4856 287.06C57.89 286.266 57.5922 282.935 57.5922 277.045C57.1952 270.164 52.5695 263.006 43.7352 255.53C37.839 251.009 34.881 248.173 34.881 246.983C35.6552 245.615 39.0103 245.218 44.9065 245.813C50.8027 247.38 57.1952 247.875 64.084 247.28C73.3154 244.524 78.2388 237.941 78.8344 227.55C79.8071 224.02 80.4027 220.47 80.6012 216.941C80.9983 212.221 78.2388 211.348 72.3426 214.283C52.4703 224.099 33.7891 230.782 16.299 234.312C10.2043 236.077 5.77723 236.374 3.01773 235.204C2.81921 234.212 2.91847 233.241 3.31552 232.249C32.6178 218.507 58.7635 197.785 81.7725 170.082L82.0703 162.725C81.4748 158.601 78.2388 158.402 72.3426 162.13C55.2298 173.909 36.5486 182.159 16.299 186.878C8.63599 188.048 4.88387 188.048 5.08239 186.878C5.28092 185.907 8.7154 183.15 15.4057 178.629C32.32 167.822 49.3336 151.521 66.4266 129.728C70.1588 124.632 71.0522 120.507 69.0868 117.354C66.9229 114.221 62.6943 114.122 56.4011 117.057C42.0477 124.136 26.9995 129.629 11.2764 133.555C3.01773 134.15 -0.714533 133.853 0.0597136 132.663C3.01773 130.501 6.75 128.34 11.2764 126.178C43.9139 109.085 70.7544 83.8612 91.798 50.4674C95.5303 44.3796 100.354 43.3088 106.251 47.2351C112.147 53.1246 117.368 55.4844 121.894 54.3144H137.816C142.72 54.3144 145.181 51.9547 145.181 47.2351V8.86402H145.221ZM50.5446 6.8017C55.0709 0.713876 61.0664 -0.555246 68.5309 2.9745C79.7476 8.66572 86.2394 14.3768 88.0062 20.068C87.6092 22.6261 86.1401 23.6969 83.5791 23.3003C81.0181 23.3003 78.5564 23.9943 76.2138 25.3626L70.3177 28.8923C64.62 32.6204 64.8185 36.4476 70.9132 40.3739C75.4396 44.4986 77.6035 49.5156 77.405 55.4051C75.8367 66.6091 70.0397 71.1303 59.9944 68.949C52.3313 66.9858 48.3012 61.0963 47.9042 51.2805C45.7403 46.5609 42.3058 45.3909 37.5809 47.7507C24.0217 53.6402 12.805 57.289 3.9508 58.6572C2.7795 58.0623 2.28319 57.3881 2.48172 56.5949C23.5055 40.2946 39.5265 23.6969 50.5446 6.8017ZM15.7432 71.3286C13.5793 66.2323 15.5447 63.8725 21.6394 64.2493C30.6722 66.2125 37.7596 69.8414 42.8815 75.1558C48.5792 83.4051 48.0829 91.2578 41.4124 98.7337C36.1118 103.057 29.7193 102.759 22.2349 97.8414C19.0784 95.2833 17.6093 91.2578 17.8078 85.7649C17.8078 80.272 17.113 75.4533 15.7432 71.3286ZM242.558 126.734C247.66 119.654 250.618 116.125 251.412 116.125C262.232 118.484 273.131 123.68 284.149 131.731C288.08 136.252 286.988 139.683 280.913 142.042C277.756 144.402 276.188 147.932 276.188 152.652V263.145C277.955 276.887 271.066 283.966 255.541 284.363C246.29 283.966 242.26 279.346 243.451 270.521C243.451 266.793 241.089 264.929 236.364 264.929H160.865C156.14 264.929 153.579 266.694 153.202 270.224C150.839 278.87 146.214 283.193 139.345 283.193C125.587 286.524 119.393 280.932 120.763 266.397V128.201C120.763 122.113 124.694 120.15 132.555 122.312C138.451 124.077 144.348 126.535 150.244 129.669C152.209 130.66 155.544 131.136 160.269 131.136H230.17C235.887 132.326 240.017 130.858 242.558 126.734ZM182.087 146.465C182.087 141.368 179.824 138.81 175.298 138.81H160.845C155.922 138.81 153.48 141.17 153.48 145.89V185.966C153.48 190.884 155.842 193.323 160.567 193.323H174.722C179.625 193.323 182.087 190.963 182.087 186.244V146.465ZM182.087 208.632C182.087 203.714 179.725 201.275 175 201.275H160.845C155.922 201.275 153.48 203.635 153.48 208.354V249.898C153.48 254.796 155.842 257.255 160.567 257.255H174.722C179.625 257.255 182.087 254.895 182.087 250.176V208.632ZM242.558 139.385C242.161 138.989 239.401 138.79 234.299 138.79H221.911C216.988 138.79 214.546 141.15 214.546 145.87V185.946C214.546 190.864 216.908 193.303 221.633 193.303H236.086C240.989 193.303 243.451 190.943 243.451 186.224V147.357C243.451 142.637 243.153 139.98 242.558 139.385ZM243.451 208.632C243.451 203.714 241.089 201.275 236.364 201.275H221.911C216.988 201.275 214.546 203.635 214.546 208.354V249.898C214.546 254.796 216.908 257.255 221.633 257.255H236.086C240.989 257.255 243.451 254.895 243.451 250.176V208.632Z" fill="white"/>
</svg>
