<svg width="305" height="311" viewBox="0 0 305 311" fill="none" xmlns="http://www.w3.org/2000/svg">
<path d="M146.455 1.35156C147.286 0.520929 150.782 0.606122 156.9 1.67103C169.157 4.41849 181.095 8.95499 192.712 15.2805C195.462 20.1365 193.544 23.2886 187.021 24.7795C185.123 24.5665 183.226 25.3119 181.329 26.9945L167.388 56.4285C165.064 61.7104 166.429 64.3301 171.502 64.3301H239.588C245.279 66.0127 249.713 64.4366 252.89 59.5806C259.434 48.8251 265.232 45.2257 270.305 48.8251C278.747 53.2551 287.188 58.4305 295.651 64.3301C300.511 66.8646 303.346 69.9315 304.199 73.5096C305.244 78.1526 303.027 81.2195 297.548 82.6891C293.541 84.1587 291.217 88.6952 290.578 96.2986V139.342C289.938 159.597 288.894 179.851 287.401 200.106C285.291 230.477 280.218 255.8 272.203 276.055C265.658 294.627 251.184 306 228.802 310.238C220.978 310.664 216.651 307.491 215.82 300.739C213.496 287.875 203.989 277.205 187.319 268.771C185.848 266.875 186.147 264.98 188.278 263.084C191.241 262.445 195.142 262.658 200.003 263.723C210.128 264.98 219.529 265.512 228.183 265.299C232.404 264.043 234.941 263.084 235.793 262.445C240.441 257.376 243.489 249.475 244.981 238.719C250.246 205.175 253.422 166.156 254.488 121.643V83.6262C253.636 76.4487 250.8 72.8707 245.94 72.8707H168.006C161.888 73.5096 156.815 77.1942 152.807 83.9457L138.546 104.839C134.944 109.695 136.649 112.954 143.62 114.658C149.098 116.127 154.598 118.342 160.098 121.303C165.171 123.837 170.543 125.094 176.256 125.094C182.8 125.094 188.172 123.198 192.414 119.407C196.635 115.403 201.921 114.445 208.252 116.553C216.907 120.557 224.304 124.668 230.422 128.885C236.753 133.741 236.326 137.851 229.164 141.216C226.627 143.751 225.37 147.542 225.37 152.611V217.804C228.333 229.625 222.833 236.376 208.892 238.059C197.061 241.232 191.263 236.376 191.476 223.512C191.476 218.443 188.939 215.909 183.866 215.909H172.461C167.175 215.909 164.553 218.443 164.553 223.512C164.766 228.368 164.553 233.224 163.913 238.059C158.84 246.088 150.825 249.56 139.847 248.495C132.023 247.025 128.975 241.743 130.659 232.67V124.135C130.659 119.066 127.483 119.173 121.152 124.455L112.924 132.058C108.063 136.914 106.273 142.494 107.53 148.82C114.501 194.611 111.858 234.587 99.6218 268.749C87.5779 293.647 69.2241 306.831 44.518 308.3C38.1869 308.3 34.5844 307.874 33.753 307.044C33.3267 305.979 33.1135 303.359 33.1135 299.142C32.0477 290.495 26.4627 282.359 16.3372 274.777C10.2193 269.921 7.25623 266.96 7.4694 265.917C8.51392 264.447 12.223 264.021 18.5541 264.66C32.069 266.769 43.58 265.619 53.066 261.189C60.2498 257.589 64.9821 252.009 67.3269 244.406C72.4003 228.581 75.0223 207.39 75.2355 180.81C75.2355 175.336 72.6988 176.167 67.6254 183.344C49.0371 206.346 29.1912 223.108 8.08759 233.65C5.12456 235.972 2.58786 236.717 0.477497 235.865C-0.162007 234.822 2.05494 231.009 7.12833 224.471C35.842 192.822 56.5406 159.064 69.2028 123.219C71.1 120.259 70.8868 116.042 68.5633 110.568L65.3871 99.8128C63.4899 94.5521 59.3758 94.9568 53.0447 101.069C38.4853 114.359 25.6953 123.858 14.7171 129.545C7.53335 132.91 4.05872 133.762 4.27188 132.079C4.48505 130.823 7.74652 127.01 14.0989 120.685C26.7611 107.395 37.3129 93.6789 45.7757 79.537C49.9964 73.2114 50.2096 66.8859 46.4152 60.539C39.4446 50.2094 30.0439 39.8586 18.2344 29.529C12.7346 24.2683 10.0061 20.8819 10.0061 19.4124C10.4324 16.8779 14.7597 17.7298 22.988 21.9468C34.8188 30.3809 44.6246 38.0908 52.4478 45.0553C57.9262 50.5502 61.8485 50.0178 64.172 43.4792C67.7533 34.1933 70.9295 24.8008 73.6793 15.3231C75.7897 6.88907 77.3671 2.56555 78.433 2.35257C86.4481 3.82214 96.7015 6.67609 109.15 10.8931C114.011 11.958 116.846 14.3647 117.698 18.1771C117.059 21.3505 115.268 22.9266 112.305 22.9266C110.408 22.9266 107.871 25.3545 104.695 30.2105C99.835 41.179 92.8644 53.106 83.7835 65.9701C79.7759 71.6567 79.243 76.6191 82.206 80.8362C90.8607 94.9781 96.9786 108.375 100.581 121.026C102.265 126.308 105.335 125.562 109.769 118.811C127.888 86.6931 140.124 47.5685 146.455 1.35156ZM191.433 142.175C191.433 136.488 188.683 133.634 183.205 133.634H172.44C167.153 133.634 164.531 136.169 164.531 141.238V199.467C164.531 204.749 167.068 207.368 172.142 207.368H183.546C188.811 207.368 191.455 204.834 191.455 199.765V142.175H191.433Z" fill="white"/>
</svg>
